<svg xmlns="http://www.w3.org/2000/svg" xmlns:xlink="http://www.w3.org/1999/xlink" viewBox="0 0 562.69 593.01"><defs><style>.cls-1,.cls-5,.cls-6,.cls-7,.cls-8{isolation:isolate;}.cls-2{fill:#21262c;}.cls-3{fill:#fff;}.cls-4{fill:#a2ff88;}.cls-19,.cls-4{stroke:#e4fdfe;}.cls-10,.cls-12,.cls-16,.cls-19,.cls-4{stroke-miterlimit:10;}.cls-5{fill:url(#linear-gradient);}.cls-6{fill:#fdd835;}.cls-7{fill:#e88602;}.cls-8{fill:#f6b33d;opacity:0.5;}.cls-9{fill:#fbfdfc;}.cls-10,.cls-12,.cls-16{fill:none;}.cls-10{stroke:#000;}.cls-10,.cls-12{stroke-width:1.6px;}.cls-11,.cls-13{opacity:0;}.cls-12{stroke:#fff;}.cls-13{mix-blend-mode:overlay;}.cls-14{fill:#df948b;}.cls-15{fill:#14162f;}.cls-16{stroke:#101224;}.cls-17{fill:#a6aa07;}.cls-18,.cls-19{fill:#32ba0c;}.cls-20{fill:#f4f6f4;opacity:0.36;}</style><linearGradient id="linear-gradient" x1="411.84" y1="387.08" x2="428.88" y2="504.95" gradientUnits="userSpaceOnUse"><stop offset="0" stop-color="#fee98a"/><stop offset="1" stop-color="#e88102"/></linearGradient></defs><g class="cls-1"><g id="Layer_2" data-name="Layer 2"><g id="Layer_1-2" data-name="Layer 1"><circle class="cls-2" cx="281.35" cy="311.67" r="281.35"/><circle class="cls-3" cx="281.35" cy="311.68" r="271.9"/><circle class="cls-4" cx="281.35" cy="320.08" r="263.5"/><path class="cls-2" d="M397.82,364.91s-37.35,10-46.51,55.07l8.8.78Z"/><circle class="cls-2" cx="416.71" cy="418.76" r="65.06"/><circle class="cls-5" cx="416.71" cy="420.76" r="59.54"/><circle class="cls-6" cx="416.71" cy="418.8" r="55.82"/><circle class="cls-7" cx="416.71" cy="418.8" r="47.83"/><circle class="cls-8" cx="417.2" cy="421.22" r="45.41"/><path class="cls-9" d="M411.89,388.16s4-15.91,9.07-16.08a23.86,23.86,0,0,1,1.27,12.79s6.21-.28,8.22,1.69c0,0,7.15-13.25,9.62-11,0,0,2.65,4.63-.64,19,0,0,4.52,9.87,3.2,30.41,0,0-.11,16.93,3.36,30.58,0,0-21,21.65-53.24,4.35l7.72-22s16.79,7.46,32.11-8.17c0,0-15.46,18.39-39,5a15.22,15.22,0,0,1-7.67-9.82c-1.13-5-.07-11.2,4-14.69a14,14,0,0,1,3.55-2.22c1.61-.69,3.48-.79,5.11-1.49,1.88-.82,3-2.62,4-4.34a24.58,24.58,0,0,0,2.38-6.15,10.36,10.36,0,0,1,2.43-4.5A10.07,10.07,0,0,1,411.89,388.16Z"/><path class="cls-10" d="M411.89,388.16s4-15.91,9.07-16.08a23.86,23.86,0,0,1,1.27,12.79s6.21-.28,8.22,1.69c0,0,7.15-13.25,9.62-11,0,0,2.65,4.63-.64,19,0,0,4.52,9.87,3.2,30.41,0,0-.11,16.93,3.36,30.58,0,0-21,21.65-53.24,4.35l7.72-22s16.79,7.46,32.11-8.17c0,0-15.46,18.39-39,5a15.22,15.22,0,0,1-7.67-9.82c-1.13-5-.07-11.2,4-14.69a14,14,0,0,1,3.55-2.22c1.61-.69,3.48-.79,5.11-1.49,1.88-.82,3-2.62,4-4.34a24.58,24.58,0,0,0,2.38-6.15,10.36,10.36,0,0,1,2.43-4.5A10.07,10.07,0,0,1,411.89,388.16Z"/><g class="cls-11"><path class="cls-3" d="M411.89,388.16s4-15.91,9.07-16.08a23.86,23.86,0,0,1,1.27,12.79s6.21-.28,8.22,1.69c0,0,7.15-13.25,9.62-11,0,0,2.65,4.63-.64,19,0,0,4.52,9.87,3.2,30.41,0,0-.11,16.93,3.36,30.58,0,0-21,21.65-53.24,4.35l7.72-22s16.79,7.46,32.11-8.17c0,0-15.46,18.39-39,5a15.22,15.22,0,0,1-7.67-9.82c-1.13-5-.07-11.2,4-14.69a14,14,0,0,1,3.55-2.22c1.61-.69,3.48-.79,5.11-1.49,1.88-.82,3-2.62,4-4.34a24.58,24.58,0,0,0,2.38-6.15,10.36,10.36,0,0,1,2.43-4.5A10.07,10.07,0,0,1,411.89,388.16Z"/><path class="cls-12" d="M411.89,388.16s4-15.91,9.07-16.08a23.86,23.86,0,0,1,1.27,12.79s6.21-.28,8.22,1.69c0,0,7.15-13.25,9.62-11,0,0,2.65,4.63-.64,19,0,0,4.52,9.87,3.2,30.41,0,0-.11,16.93,3.36,30.58,0,0-21,21.65-53.24,4.35l7.72-22s16.79,7.46,32.11-8.17c0,0-15.46,18.39-39,5a15.22,15.22,0,0,1-7.67-9.82c-1.13-5-.07-11.2,4-14.69a14,14,0,0,1,3.55-2.22c1.61-.69,3.48-.79,5.11-1.49,1.88-.82,3-2.62,4-4.34a24.58,24.58,0,0,0,2.38-6.15,10.36,10.36,0,0,1,2.43-4.5A10.07,10.07,0,0,1,411.89,388.16Z"/></g><g class="cls-11"><path class="cls-3" d="M411.89,388.16s4-15.91,9.07-16.08a23.86,23.86,0,0,1,1.27,12.79s6.21-.28,8.22,1.69c0,0,7.15-13.25,9.62-11,0,0,2.65,4.63-.64,19,0,0,4.52,9.87,3.2,30.41,0,0-.11,16.93,3.36,30.58,0,0-21,21.65-53.24,4.35l7.72-22s16.79,7.46,32.11-8.17c0,0-15.46,18.39-39,5a15.22,15.22,0,0,1-7.67-9.82c-1.13-5-.07-11.2,4-14.69a14,14,0,0,1,3.55-2.22c1.61-.69,3.48-.79,5.11-1.49,1.88-.82,3-2.62,4-4.34a24.58,24.58,0,0,0,2.38-6.15,10.36,10.36,0,0,1,2.43-4.5A10.07,10.07,0,0,1,411.89,388.16Z"/><path class="cls-12" d="M411.89,388.16s4-15.91,9.07-16.08a23.86,23.86,0,0,1,1.27,12.79s6.21-.28,8.22,1.69c0,0,7.15-13.25,9.62-11,0,0,2.65,4.63-.64,19,0,0,4.52,9.87,3.2,30.41,0,0-.11,16.93,3.36,30.58,0,0-21,21.65-53.24,4.35l7.72-22s16.79,7.46,32.11-8.17c0,0-15.46,18.39-39,5a15.22,15.22,0,0,1-7.67-9.82c-1.13-5-.07-11.2,4-14.69a14,14,0,0,1,3.55-2.22c1.61-.69,3.48-.79,5.11-1.49,1.88-.82,3-2.62,4-4.34a24.58,24.58,0,0,0,2.38-6.15,10.36,10.36,0,0,1,2.43-4.5A10.07,10.07,0,0,1,411.89,388.16Z"/><g class="cls-11"><path class="cls-3" d="M411.89,388.16s4-15.91,9.07-16.08a23.86,23.86,0,0,1,1.27,12.79s6.21-.28,8.22,1.69c0,0,7.15-13.25,9.62-11,0,0,2.65,4.63-.64,19,0,0,4.52,9.87,3.2,30.41,0,0-.11,16.93,3.36,30.58,0,0-21,21.65-53.24,4.35l7.72-22s16.79,7.46,32.11-8.17c0,0-15.46,18.39-39,5a15.22,15.22,0,0,1-7.67-9.82c-1.13-5-.07-11.2,4-14.69a14,14,0,0,1,3.55-2.22c1.61-.69,3.48-.79,5.11-1.49,1.88-.82,3-2.62,4-4.34a24.58,24.58,0,0,0,2.38-6.15,10.36,10.36,0,0,1,2.43-4.5A10.07,10.07,0,0,1,411.89,388.16Z"/><path class="cls-12" d="M411.89,388.16s4-15.91,9.07-16.08a23.86,23.86,0,0,1,1.27,12.79s6.21-.28,8.22,1.69c0,0,7.15-13.25,9.62-11,0,0,2.65,4.63-.64,19,0,0,4.52,9.87,3.2,30.41,0,0-.11,16.93,3.36,30.58,0,0-21,21.65-53.24,4.35l7.72-22s16.79,7.46,32.11-8.17c0,0-15.46,18.39-39,5a15.22,15.22,0,0,1-7.67-9.82c-1.13-5-.07-11.2,4-14.69a14,14,0,0,1,3.55-2.22c1.61-.69,3.48-.79,5.11-1.49,1.88-.82,3-2.62,4-4.34a24.58,24.58,0,0,0,2.38-6.15,10.36,10.36,0,0,1,2.43-4.5A10.07,10.07,0,0,1,411.89,388.16Z"/></g></g><g class="cls-13"><path class="cls-3" d="M411.89,388.16s4-15.91,9.07-16.08a23.86,23.86,0,0,1,1.27,12.79s6.21-.28,8.22,1.69c0,0,7.15-13.25,9.62-11,0,0,2.65,4.63-.64,19,0,0,4.52,9.87,3.2,30.41,0,0-.11,16.93,3.36,30.58,0,0-21,21.65-53.24,4.35l7.72-22s16.79,7.46,32.11-8.17c0,0-15.46,18.39-39,5a15.22,15.22,0,0,1-7.67-9.82c-1.13-5-.07-11.2,4-14.69a14,14,0,0,1,3.55-2.22c1.61-.69,3.48-.79,5.11-1.49,1.88-.82,3-2.62,4-4.34a24.58,24.58,0,0,0,2.38-6.15,10.36,10.36,0,0,1,2.43-4.5A10.07,10.07,0,0,1,411.89,388.16Z"/><path class="cls-12" d="M411.89,388.16s4-15.91,9.07-16.08a23.86,23.86,0,0,1,1.27,12.79s6.21-.28,8.22,1.69c0,0,7.15-13.25,9.62-11,0,0,2.65,4.63-.64,19,0,0,4.52,9.87,3.2,30.41,0,0-.11,16.93,3.36,30.58,0,0-21,21.65-53.24,4.35l7.72-22s16.79,7.46,32.11-8.17c0,0-15.46,18.39-39,5a15.22,15.22,0,0,1-7.67-9.82c-1.13-5-.07-11.2,4-14.69a14,14,0,0,1,3.55-2.22c1.61-.69,3.48-.79,5.11-1.49,1.88-.82,3-2.62,4-4.34a24.58,24.58,0,0,0,2.38-6.15,10.36,10.36,0,0,1,2.43-4.5A10.07,10.07,0,0,1,411.89,388.16Z"/><g class="cls-11"><path class="cls-3" d="M411.89,388.16s4-15.91,9.07-16.08a23.86,23.86,0,0,1,1.27,12.79s6.21-.28,8.22,1.69c0,0,7.15-13.25,9.62-11,0,0,2.65,4.63-.64,19,0,0,4.52,9.87,3.2,30.41,0,0-.11,16.93,3.36,30.58,0,0-21,21.65-53.24,4.35l7.72-22s16.79,7.46,32.11-8.17c0,0-15.46,18.39-39,5a15.22,15.22,0,0,1-7.67-9.82c-1.13-5-.07-11.2,4-14.69a14,14,0,0,1,3.55-2.22c1.61-.69,3.48-.79,5.11-1.49,1.88-.82,3-2.62,4-4.34a24.58,24.58,0,0,0,2.38-6.15,10.36,10.36,0,0,1,2.43-4.5A10.07,10.07,0,0,1,411.89,388.16Z"/><path class="cls-12" d="M411.89,388.16s4-15.91,9.07-16.08a23.86,23.86,0,0,1,1.27,12.79s6.21-.28,8.22,1.69c0,0,7.15-13.25,9.62-11,0,0,2.65,4.63-.64,19,0,0,4.52,9.87,3.2,30.41,0,0-.11,16.93,3.36,30.58,0,0-21,21.65-53.24,4.35l7.72-22s16.79,7.46,32.11-8.17c0,0-15.46,18.39-39,5a15.22,15.22,0,0,1-7.67-9.82c-1.13-5-.07-11.2,4-14.69a14,14,0,0,1,3.55-2.22c1.61-.69,3.48-.79,5.11-1.49,1.88-.82,3-2.62,4-4.34a24.58,24.58,0,0,0,2.38-6.15,10.36,10.36,0,0,1,2.43-4.5A10.07,10.07,0,0,1,411.89,388.16Z"/></g><g class="cls-11"><path class="cls-3" d="M411.89,388.16s4-15.91,9.07-16.08a23.86,23.86,0,0,1,1.27,12.79s6.21-.28,8.22,1.69c0,0,7.15-13.25,9.62-11,0,0,2.65,4.63-.64,19,0,0,4.52,9.87,3.2,30.41,0,0-.11,16.93,3.36,30.58,0,0-21,21.65-53.24,4.35l7.72-22s16.79,7.46,32.11-8.17c0,0-15.46,18.39-39,5a15.22,15.22,0,0,1-7.67-9.82c-1.13-5-.07-11.2,4-14.69a14,14,0,0,1,3.55-2.22c1.61-.69,3.48-.79,5.11-1.49,1.88-.82,3-2.62,4-4.34a24.58,24.58,0,0,0,2.38-6.15,10.36,10.36,0,0,1,2.43-4.5A10.07,10.07,0,0,1,411.89,388.16Z"/><path class="cls-12" d="M411.89,388.16s4-15.91,9.07-16.08a23.86,23.86,0,0,1,1.27,12.79s6.21-.28,8.22,1.69c0,0,7.15-13.25,9.62-11,0,0,2.65,4.63-.64,19,0,0,4.52,9.87,3.2,30.41,0,0-.11,16.93,3.36,30.58,0,0-21,21.65-53.24,4.35l7.72-22s16.79,7.46,32.11-8.17c0,0-15.46,18.39-39,5a15.22,15.22,0,0,1-7.67-9.82c-1.13-5-.07-11.2,4-14.69a14,14,0,0,1,3.55-2.22c1.61-.69,3.48-.79,5.11-1.49,1.88-.82,3-2.62,4-4.34a24.58,24.58,0,0,0,2.38-6.15,10.36,10.36,0,0,1,2.43-4.5A10.07,10.07,0,0,1,411.89,388.16Z"/><g class="cls-11"><path class="cls-3" d="M411.89,388.16s4-15.91,9.07-16.08a23.86,23.86,0,0,1,1.27,12.79s6.21-.28,8.22,1.69c0,0,7.15-13.25,9.62-11,0,0,2.65,4.63-.64,19,0,0,4.52,9.87,3.2,30.41,0,0-.11,16.93,3.36,30.58,0,0-21,21.65-53.24,4.35l7.72-22s16.79,7.46,32.11-8.17c0,0-15.46,18.39-39,5a15.22,15.22,0,0,1-7.67-9.82c-1.13-5-.07-11.2,4-14.69a14,14,0,0,1,3.55-2.22c1.61-.69,3.48-.79,5.11-1.49,1.88-.82,3-2.62,4-4.34a24.58,24.58,0,0,0,2.38-6.15,10.36,10.36,0,0,1,2.43-4.5A10.07,10.07,0,0,1,411.89,388.16Z"/><path class="cls-12" d="M411.89,388.16s4-15.91,9.07-16.08a23.86,23.86,0,0,1,1.27,12.79s6.21-.28,8.22,1.69c0,0,7.15-13.25,9.62-11,0,0,2.65,4.63-.64,19,0,0,4.52,9.87,3.2,30.41,0,0-.11,16.93,3.36,30.58,0,0-21,21.65-53.24,4.35l7.72-22s16.79,7.46,32.11-8.17c0,0-15.46,18.39-39,5a15.22,15.22,0,0,1-7.67-9.82c-1.13-5-.07-11.2,4-14.69a14,14,0,0,1,3.55-2.22c1.61-.69,3.48-.79,5.11-1.49,1.88-.82,3-2.62,4-4.34a24.58,24.58,0,0,0,2.38-6.15,10.36,10.36,0,0,1,2.43-4.5A10.07,10.07,0,0,1,411.89,388.16Z"/></g></g></g><path class="cls-14" d="M414.56,386.65s3-2,5.41-1.5c0,0,1.58-10.36-1.49-9.3C418.48,375.85,414.36,380.77,414.56,386.65Z"/><path class="cls-14" d="M432.37,387.79s3.47,2.15,4.67,3.78c0,0,2.71-11.53.49-12.12A20.16,20.16,0,0,0,432.37,387.79Z"/><ellipse class="cls-15" cx="409.95" cy="403.34" rx="3.37" ry="2.91" transform="translate(-40.56 760.81) rotate(-82.97)"/><ellipse class="cls-16" cx="409.94" cy="403.45" rx="5.1" ry="4.08" transform="translate(-40.67 760.9) rotate(-82.97)"/><circle class="cls-15" cx="423.77" cy="406.93" r="3.37"/><ellipse class="cls-16" cx="423.77" cy="407.13" rx="5.1" ry="4.75" transform="translate(-53.14 750.5) rotate(-79.61)"/><path class="cls-2" d="M159.21,81.32,124.07,68.13s-2.15-2,.42-4.39L113.7,59.92s-4.53-18.4,16.89-18.57c0,0-5.44-15.36-21.54-19.55,0,0,1.7-16.2,27.08-3l.93-3.3S159.8,24.52,169.89,42A77.23,77.23,0,0,0,159.13,3.77s15-12.29,25.53,7.49c0,0,4.56,14.51,4.4,17.12,0,0,2-17.45,17.8-5.75,0,0,7,6.24,2.41,16.69,0,0,14.17,1,8.57,13.22L209.3,72.92s3.9,5,2.81,10.94c0,0,18,5.3,22.2,8.9,0,0,26.27-29.32,35.55-11.49,0,0,3.65,14.4-.35,26.4l1.85,1s25.22-36,43.73-25.07c0,0,9.9,1.94-3.43,43.88,0,0,81.54-1.65,73.51,22.92,0,0-11.8,17.88-47.47,27.15,0,0,15.5,26.89,42.1,34.63,0,0,61.22,22.25,46.75,87.9,0,0-10.64,48.36-68.59,58.52,0,0-35.59,6.54-55.06-1.13,0,0,1.55,4.9,9.3,5.62,0,0,34.42,6.88,22.07,33.52l8.5,15.91s10.58-6.3,18.65-1c0,0,11.8,5.34,8.63,19.62,0,0,19.9,1.67,11.51,16.78,0,0,17.86,5.13,5.33,21.75,0,0,24.38,20.67,44.18,7.21,0,0,16.74,3.05,9.45,16.8,0,0-13.81,16.87-55,2.82,0,0-27.59,9-32.86,7.82,0,0,6.41,58.32,3.66,67.63,0,0-93.23,40.44-210.7-23,0,0-64.88-36.71-100.15-101l60.09-26.37,5-9.67S80,372.4,112.3,365.54c0,0,16.72,1.68,10.16-13.78,0,0-7.08-24,32.12-20.41,0,0,3-1.58,1.82-11.68,0,0-.62-75.78,3.31-86.88,0,0-56.66,14.06-65.82-5,0,0-8.6-16.72,53-52.58,0,0-7.2-34.07,16.8-73.21C163.68,102,155.07,93.54,159.21,81.32Z"/><path class="cls-3" d="M297.65,155l9.27-.48-3.61-6.26S234.15,154.16,184,182.4c0,0-30.52,71.67-20.31,154.77,0,0,58.72,3.17,98,29.65,0,0,15.88-16.47.85-22,0,0-42.86-19.46-52.88-55.36,0,0,2.08-6.43,8.24-.43,0,0,23.94,59,101.3,63.92,0,0,73.53,8.62,94.22-51.66,0,0,14.36-44.77-27.13-71.26,0,0-43.23-15.75-57-43.52,0,0-11.26-17.94-11.29-21L296.69,158Z"/><path class="cls-17" d="M249,366.91s-46-10.39-95,2.28c0,0-25.84,5.79-28.73-12,0,0-.47-16.32,22.42-12.05,0,0,70.27,5.56,82.41,10.26C230.09,355.37,253.56,361.48,249,366.91Z"/><path class="cls-17" d="M281.74,373.64l-1.93,4.54c-.15.35-6.41,0-7.13,0-2.47.05-4.94.13-7.41.26q-7.42.39-14.79,1.3a207.17,207.17,0,0,0-29.1,5.77,240.39,240.39,0,0,0-104.3,59.07l-2.22,2.13a284.92,284.92,0,0,0-34.24,40.44c-1,1.49-2.08,3-3.1,4.5l-1.82.59L51.34,459.29A425.8,425.8,0,0,0,93.26,442c7.21-3.48,16.73-7.36,21.55-14a42,42,0,0,0,3.25-5.93c2.61-5.25,6-10.43,11-13.77,2.49-1.68,5.24-3.2,7.86-4.72a91.37,91.37,0,0,1,22.1-8.93,123.27,123.27,0,0,1,29.17-4.09l1.34-5.15s-5.78-6.39-34.79,2.65c-6.6,2.06-13.66,4.59-19.18,8.86-5.2,4-9.89,10.08-16.46,10-6.31-.08-11-6-13.23-11.92-1.31-3.45-2.11-7.45-.41-10.73,1.44-2.77,4.44-4.46,7.49-5.15a41.69,41.69,0,0,1,9.35-.52c17.17,0,34-4.61,50.9-7.38,35.89-5.87,72.68-3.36,108.6,2.33Z"/><path class="cls-17" d="M81.59,498.51S152.8,397.43,242.46,392.08c0,0,26.77.36,5.55,9.25,0,0-93.59,22.77-109.32,143.49C138.69,544.82,96.2,519.38,81.59,498.51Z"/><path class="cls-17" d="M184.67,458.73S199.73,477,210,483.93c0,0-15.61,48.13-19.6,86.24,0,0-40-16-43.16-20.33C147.23,549.84,166,471.33,184.67,458.73Z"/><ellipse class="cls-17" cx="296.17" cy="376.52" rx="7.52" ry="8.65" transform="translate(-91.78 95.49) rotate(-15.89)"/><path class="cls-17" d="M283.07,383l6.9,9.56c.17.23-.24,1.52-.29,1.78-.27,1.47-.61,2.94-1,4.39-1.11,3.91-2.63,8.19-6,10.74a7.4,7.4,0,0,1-1.71,1,4.51,4.51,0,0,1-3.91,0,7,7,0,0,1-2.48-2.8c-2.49-4.56-.68-9.72,1.68-13.91,1.2-2.13,2.61-4.13,3.92-6.2C280.41,387.21,283.27,383.27,283.07,383Z"/><path class="cls-17" d="M308.21,377.44l1.7-4.24c0-.11,4.3,1.63,4.55,1.73a45.9,45.9,0,0,1,8.93,4.91c2.6,1.89,5.26,4.37,6.09,7.59a8.11,8.11,0,0,1,.06,3.7c-.19.88-.79,3-1.9,3.05a4.1,4.1,0,0,1-2-.61,8.14,8.14,0,0,1-2.13-1.55c-.17-.17-.33-.35-.49-.54a14.3,14.3,0,0,1-2-3.27,11.21,11.21,0,0,0-1.73-3.19,33.46,33.46,0,0,0-5.47-4.36C313.45,380.35,308.31,377.2,308.21,377.44Z"/><path class="cls-17" d="M305.81,386.85l2.4-4.91c0,.09,2.35,2.26,2.5,2.42a42.75,42.75,0,0,1,5,6.12A19.43,19.43,0,0,1,319,399.2a10.32,10.32,0,0,1-.58,4.51c-.47,1.25-1.4,3.09-2.66,3.71a2.52,2.52,0,0,1-1.56.14,5.78,5.78,0,0,1-2.22-.95c-2.11-1.51-2.91-4.27-3.25-6.71a23.46,23.46,0,0,1-.23-2.91S307.92,390,305.81,386.85Z"/><path class="cls-3" d="M295.2,393.22s5-6,7.71.41c0,0-2.29,21.68,13.39,22.45,0,0,7-.33,8.51-12.06l7.3,16.85s-33.14,22.7-66.31-3.23c0,0-8.09,7.79,8.85,15.53a67,67,0,0,0,19.83,5.6,66.19,66.19,0,0,0,44.63-10.68c2.9-1.92,5.39-4.54,8.85-5.37,2.46-.59,8-1.74,9.33,1.47,1.11,2.62-.82,5.72-2.21,7.83a15.11,15.11,0,0,1-2.88,3.19c-1.38,1.2-3.55,3.13-3.2,5.19.61,3.55,5.18,2.7,7.25,1.55a19.29,19.29,0,0,1,7.54-2.55c2.88-.25,9.06.9,9,4.85s-4.46,6.75-7.81,7.87c-3.63,1.21-7.74.5-10.74,3.09a4.31,4.31,0,0,0-1.5,2.13c-.78,3.05,3.64,3.94,5.67,3.72,5.19-.58,9.64-2.63,14.61-3.88a6.26,6.26,0,0,1,4.57.35c2.48,1.41,3.53,6,1.76,8.27-1.92,2.48-7.63,3-10.5,3.26-1,.1-7.26-.54-7.76,0a2.11,2.11,0,0,0,.2,2.77,5.57,5.57,0,0,0,2.67,1.38c3,.85,6,.9,9,1.39-.2,2-3.57,3.88-5.15,4.62-5.26,2.47-11.53,2.13-17.1,1.13-2.1-.38-4.17-.88-6.22-1.46,0,0-48.4,21.19-74.6,17.58,0,0-50.1-1-78.26-47.69,0,0,45-34.65,71.68-45.44,0,0,6.63,16.94,17.45,17.87,0,0,9.44.39,11.64-14.71Z"/><path class="cls-3" d="M219.18,491.08s49,33.53,115.84,1.3c0,0,12.5,31.87,7.9,83.39,0,0-66.15,21.67-142.21-2.42C200.71,573.35,214,498,219.18,491.08Z"/><path class="cls-3" d="M349,488.32s23.33,4.37,33.57-8.42c0,0,25.38,16.6,44.82,9.31l2.37,2.34s-.61,10.67-25.81,4.91c0,0-17.14-6.37-25.09-3.73,0,0-23.05,7-29.33,6C349.55,498.69,347.36,492.21,349,488.32Z"/><path class="cls-18" d="M104.76,225.86s124.57-110.83,266-77.21c0,0,3.83-3.31-12-6.31,0,0-130.27-30.73-238.39,63.76C120.41,206.1,104,218,104.76,225.86Z"/><path class="cls-3" d="M218.08,143.24l19.5-3.79q3-8.14,6-16.29a13.37,13.37,0,0,1,1.78-3.94c1.35-1.67,4.14-3.06,5.2-.34,1.69,4.35-.61,9-1.76,13.18-.13.49-1,4.66-1.29,4.71l9.31-1.41s8.9-52.79-2.35-45.77C254.5,89.59,233,95.64,218.08,143.24Z"/><path class="cls-3" d="M268.77,133l15-.77,2.13-5.11c1.46-3.53,2.48-7.36,5.46-10,1-.88,2.65-2,3.88-.92,1,.86,1.26,2.47,1.4,3.7L292.35,131l7.4.38,6.55-28a23.06,23.06,0,0,0,.72-4.05c.1-1.76-.07-4.3-2.11-4.88a6.38,6.38,0,0,0-4.12.71,34.33,34.33,0,0,0-7.19,4.66c-2.44,1.91-4.67,4.14-7.16,6a18.82,18.82,0,0,0-2,1.77,49.77,49.77,0,0,0-6.58,8.11,98.28,98.28,0,0,0-8.53,16Z"/><path class="cls-19" d="M156.49,172.06s37.08-22.49,50.34-24.65c0,0,13.15-40.63,20.27-46.75,0,0-37.9-21.66-59,13.06C168.13,113.72,150.38,142.59,156.49,172.06Z"/><path class="cls-19" d="M166.89,97s19.05-14.55,37.89-11.24c-.06,0-1.88-5.09-2.14-5.51a11.37,11.37,0,0,0-7.58-5.3c-5.14-1-11.18,1.21-16,3-4.31,1.57-8.94,3.31-12.46,6.39C162.43,87.92,161.74,93.74,166.89,97Z"/><path class="cls-19" d="M199.38,69.28l5.05.58,9.63-18.7s.74-5.43-5.75-4Z"/><path class="cls-19" d="M189.08,68.51l5.07.21,11-29.93S208,25.7,192.7,25.43Z"/><path class="cls-19" d="M181.93,70.15l-3.63-1.92s.86-22-14-58.18c0,0,6.13-8.43,14.78,4.32,0,0,11.81,26.27,2.91,56.64"/><path class="cls-19" d="M114.73,23.74s0-5.39,7.89-2l12.15,5.13,1.51-3.14s28.41,12.1,35.43,43.89C171.71,67.64,155,42.8,114.73,23.74Z"/><path class="cls-20" d="M121,21.78s-6.66-2.57,1.58-.05l12.15,5.14,1.51-3.12s23.06,10.15,32.79,35.09C169.07,58.84,161.26,40.84,121,21.78Z"/><path class="cls-19" d="M163,68.83l.45-2.16c0-.22-1.37-1.31-1.52-1.44-1.36-1.26-2.75-2.47-4.18-3.65a85,85,0,0,0-13.64-9.4c-4.93-2.68-10.54-5-16.24-4.78a15.15,15.15,0,0,0-9,3.24,4.81,4.81,0,0,0,1.26,8.11c2.75,1.12,6.07.94,8.94.39,4.1-.77,8.32,0,12.35.88a66,66,0,0,1,10.25,3.18c1.87.74,3.72,1.57,5.52,2.46C157.82,66,163.12,68.41,163,68.83Z"/><path class="cls-19" d="M156,73.83s-30-15.92-27.21-5.29c0,0,20.43,7.13,26.23,6.58Z"/><path class="cls-3" d="M108.14,217.68s91-101.46,245.19-76.41C353.33,141.27,224.22,114,108.14,217.68Z"/><path class="cls-2" d="M241.29,191.91c2.58-3,12.19-15.78,24.93-13.82s-5.63-9.89-16.17-2.37S237.55,196.26,241.29,191.91Z"/><ellipse class="cls-2" cx="271.54" cy="220.92" rx="14.58" ry="20.72" transform="matrix(0.95, -0.32, 0.32, 0.95, -57.03, 100.15)"/><ellipse class="cls-2" cx="317.65" cy="203.91" rx="11.35" ry="16.14" transform="translate(-49 114.21) rotate(-18.95)"/></g></g></g></svg>